<svg width="39" height="35" fill="none" xmlns="http://www.w3.org/2000/svg"><path fill-rule="evenodd" clip-rule="evenodd" d="M38.648 9.515a1.14 1.14 0 01.258.922L36.998 22.21a3.405 3.405 0 01-3.36 2.87l-20.849.09a1.14 1.14 0 00.01 2.279l18.223-.08a3.417 3.417 0 11-3.21 2.292l-7.226.032a3.416 3.416 0 11-6.442.028l-1.335.006a3.417 3.417 0 01-1.275-6.592c-.634-5.492-1.09-9.442-1.42-12.285-.84-7.277-.842-7.289-.837-7.297l.001-.007a1.139 1.139 0 00-1.144-1.134l-6.985.03a1.139 1.139 0 01-.01-2.277l6.985-.03a3.421 3.421 0 013.432 3.332l.665 5.761 3.916-.017-.015-3.417a1.14 1.14 0 011.134-1.144l5.694-.025-.005-1.139a1.139 1.139 0 011.134-1.143l9.112-.04a1.139 1.139 0 011.144 1.134l.025 5.694 3.416-.014a1.14 1.14 0 01.871.398zm-6.472 21.266a1.14 1.14 0 10-2.28.01 1.14 1.14 0 002.28-.01zm-13.667.06a1.138 1.138 0 10-2.277.01 1.138 1.138 0 002.277-.01zm.328-11.742a1.284 1.284 0 11-2.57.01l-.022-5.137a1.284 1.284 0 112.57-.011l.022 5.138zm6.428 1.256a1.284 1.284 0 001.279-1.29l-.023-5.138a1.284 1.284 0 10-2.569.011l.023 5.138c.003.71.58 1.282 1.29 1.28zm8.986-1.324a1.284 1.284 0 11-2.569.012l-.022-5.138a1.284 1.284 0 112.569-.012l.022 5.138z" fill="#fff"/></svg>