<svg width="22" height="22" fill="none" xmlns="http://www.w3.org/2000/svg"><g clip-path="url(#clip0_1601_55)" fill="#fff"><path d="M21 22.11H1a10.889 10.889 0 014.111-8.614 1.824 1.824 0 012.51.244c.888 1.06 2.086 1.704 3.386 1.704 1.3 0 2.508-.655 3.413-1.735a1.778 1.778 0 012.444-.238A10.887 10.887 0 0121 22.111z"/><path d="M16.111 6.667a8.38 8.38 0 01-.87 3.778c-.919 1.806-2.474 2.995-4.24 2.995-1.767 0-3.334-1.189-4.24-2.995a8.38 8.38 0 01-.872-3.778C5.89 2.925 8.18-.11 11-.11c2.822 0 5.111 3.035 5.111 6.777z"/></g><defs><clipPath id="clip0_1601_55"><path fill="#fff" d="M0 0h22v22H0z"/></clipPath></defs></svg>