<svg xmlns="http://www.w3.org/2000/svg" xmlns:xlink="http://www.w3.org/1999/xlink"><defs><filter id="filter0_d_1601_79" x=".701" y=".701" width="44.499" height="9.246" filterUnits="userSpaceOnUse" color-interpolation-filters="sRGB"><feFlood flood-opacity="0" result="BackgroundImageFix"/><feColorMatrix in="SourceAlpha" values="0 0 0 0 0 0 0 0 0 0 0 0 0 0 0 0 0 0 127 0" result="hardAlpha"/><feOffset/><feGaussianBlur stdDeviation="1.353"/><feColorMatrix values="0 0 0 0 0.831373 0 0 0 0 0.235294 0 0 0 0 0.219608 0 0 0 1 0"/><feBlend in2="BackgroundImageFix" result="effect1_dropShadow_1601_79"/><feBlend in="SourceGraphic" in2="effect1_dropShadow_1601_79" result="shape"/></filter><clipPath id="clip0_1601_55"><path fill="#fff" d="M0 0h22v22H0z"/></clipPath></defs><symbol id="icon-arrow-buy"><g filter="url(#filter0_d_1601_79)"><path d="M4 6.649h36.427L36.183 4" stroke="#fff" stroke-width="1.184" stroke-linecap="round"/></g></symbol><symbol id="icon-back"><path d="M53.429 21.812V34.86c-2.968-4.639-9.149-6.282-11.374-6.282H22.079c-.848 0-1.535.687-1.535 1.535V38L2 19.638 20.544 2v5.955c0 .848.684 1.535 1.532 1.535h19.979c4.203 0 11.374 5.557 11.374 12.322z" stroke="#fff" stroke-width="1.535"/></symbol><symbol id="icon-basket"><path fill-rule="evenodd" clip-rule="evenodd" d="M38.648 9.515a1.14 1.14 0 01.258.922L36.998 22.21a3.405 3.405 0 01-3.36 2.87l-20.849.09a1.14 1.14 0 00.01 2.279l18.223-.08a3.417 3.417 0 11-3.21 2.292l-7.226.032a3.416 3.416 0 11-6.442.028l-1.335.006a3.417 3.417 0 01-1.275-6.592c-.634-5.492-1.09-9.442-1.42-12.285-.84-7.277-.842-7.289-.837-7.297l.001-.007a1.139 1.139 0 00-1.144-1.134l-6.985.03a1.139 1.139 0 01-.01-2.277l6.985-.03a3.421 3.421 0 013.432 3.332l.665 5.761 3.916-.017-.015-3.417a1.14 1.14 0 011.134-1.144l5.694-.025-.005-1.139a1.139 1.139 0 011.134-1.143l9.112-.04a1.139 1.139 0 011.144 1.134l.025 5.694 3.416-.014a1.14 1.14 0 01.871.398zm-6.472 21.266a1.14 1.14 0 10-2.28.01 1.14 1.14 0 002.28-.01zm-13.667.06a1.138 1.138 0 10-2.277.01 1.138 1.138 0 002.277-.01zm.328-11.742a1.284 1.284 0 11-2.57.01l-.022-5.137a1.284 1.284 0 112.57-.011l.022 5.138zm6.428 1.256a1.284 1.284 0 001.279-1.29l-.023-5.138a1.284 1.284 0 10-2.569.011l.023 5.138c.003.71.58 1.282 1.29 1.28zm8.986-1.324a1.284 1.284 0 11-2.569.012l-.022-5.138a1.284 1.284 0 112.569-.012l.022 5.138z" fill="#fff"/></symbol><symbol id="icon-brush"><path d="M14.09 23.96l1.276 1.261c.688.667 2.01.86 2.668.197L34.207 7.546a2.018 2.018 0 00-2.903-2.802l-17.44 16.553c-.685.669-.463 1.995.225 2.662zm-.636 6.177c.232-.24.433-.507.598-.796a3.002 3.002 0 00-4.536-3.69l-.077.07-.268.258-.094.097a6.343 6.343 0 00-1.282 2.477c-.598 2.155-.759 4.67-2.898 6.225-2.89 2.062 5.754-1.669 8.558-4.641z" fill="#fff"/></symbol><symbol id="icon-logo"><path d="M2.427 2.427l-1.176 37.99L0 0h75.916c-7.266 1.848-16.04 4.075-21.641 5.588-24.337 6.26-34.38 25.224-34.969 26.778-.437 1.143-.27 1.37.221 1.855l3.132.205a11.17 11.17 0 005.51-1.008c2.032-.962 4.01-3.37 5.934-7.223.188 2.12.263 3.239.224 3.358l7.398-7.064.038 1.276 15.052-12.769-9.98 11.458c.02.145.039.323.06.54a18.4 18.4 0 01.116 3.069l9.931-4.027-9.243 6.203c12.453-1.556 21.103-2.042 32.304-2.187v21.814c-.853-1.586-3.382-4.755-4.046-5.472-.442-.453-.877-.93-1.362-1.37a28.308 28.308 0 00-3.12-2.555c-.572-.377-1.125-.785-1.73-1.119l-.393-.23-.5-.293-.919-.456c-.604-.33-1.246-.577-1.872-.852-.307-.143-.634-.248-.95-.364l-.42-.151-.54-.192a54.38 54.38 0 00-1.906-.54l-.836-.183-1.047-.226-.809-.124-1.017-.157c-.601-.065-1.19-.108-1.758-.162l-.19-.019-.237-.021h-2.025c-.27 0-.513 0-.76.016l-.643.022-.78.027c-.45 0-.876.07-1.275.1l-.512.045-.605.057c-.345.027-.658.089-.944.127l-.903.132-.88.13h.67l1.127-.02h.944l.47.017.641.026c.391.02.81.03 1.26.063l.596.056.793.078.736.081.332.054.429.068.342.054.443.07.175.03.224.035.175.037.227.049c.54.124 1.079.237 1.65.372l.737.213.954.27.745.27.957.345c.561.242 1.128.483 1.689.736l.361.186.464.24c.278.133.548.28.81.443.539.326 1.078.617 1.58.987l.766.523.728.57c.496.36.936.79 1.394 1.18a24.79 24.79 0 012.414 2.579c.37.431.69.898 1.02 1.348.159.224.307.454.456.675.148.22.296.44.428.666.517.83.987 1.688 1.408 2.57a79.888 79.888 0 014.834 12.278V80l-12.448-.386c1.675-4.334 2.05-7.989 2.358-10.489.615-3.827-.081-10.449-2.358-15.436-4.585-8.862-11.303-10.861-20.897-11.182-2.158-.07-13.729.51-21.92 12.043-1.993 2.808-3.433 4.377-1.432 9.14-9.555-5.984-11.671-15.113-6.35-27.386a4.742 4.742 0 00.322-2.628 2.497 2.497 0 01.143-1.31C23.152 18.084 33.892 10.27 40.638 5.934a47.227 47.227 0 014.917-2.697l-43.128-.81zm43.066 26.055c.682-.577.706-3.35.599-4.939-5.975 4.335-8.34 7.231-9.17 8.593h.485c3.093 0 5.567-1.82 7.201-3.026.324-.237.629-.456.898-.642l-.013.014z" fill="#fff"/></symbol><symbol id="icon-marker"><path d="M8 0c4.411 0 8 3.452 8 7.694 0 4.01-6.64 10.915-7.397 11.69L8 20l-.603-.616C6.64 18.609 0 11.704 0 7.694 0 3.452 3.588 0 8 0zm0 10.879c1.825 0 3.31-1.429 3.31-3.184C11.31 5.939 9.825 4.51 8 4.51c-1.826 0-3.31 1.428-3.31 3.184 0 1.755 1.484 3.184 3.31 3.184z" fill="#fff" fill-opacity=".5"/></symbol><symbol id="icon-menu"><path fill-rule="evenodd" clip-rule="evenodd" d="M22 0H0v2.657h20.275L22 0zm-5.621 8.661l1.724-2.657H0v2.657h16.379zm-2.173 3.347H0v2.657h12.482l1.724-2.657z" fill="#fff"/></symbol><symbol id="icon-phone"><path d="M30.222 22.222c-2.133 0-4.266-.355-6.4-1.066-.533-.178-1.244 0-1.778.355l-3.91 3.911C13.155 22.933 9.066 18.667 6.4 13.69l3.911-3.911c.533-.534.711-1.245.356-1.778-.534-1.956-.89-4.089-.89-6.222C9.778.71 9.068 0 8 0H1.778C.71 0 0 .711 0 1.778 0 18.488 13.511 32 30.222 32 31.29 32 32 31.289 32 30.222V24c0-1.067-.711-1.778-1.778-1.778zM28.444 16H32c0-8.889-7.111-16-16-16v3.556c6.933 0 12.444 5.51 12.444 12.444zm-7.11 0h3.555c0-4.978-3.911-8.889-8.889-8.889v3.556c3.022 0 5.333 2.31 5.333 5.333z" fill="#D43C38"/></symbol><symbol id="icon-user"><g clip-path="url(#clip0_1601_55)" fill="#fff"><path d="M21 22.11H1a10.889 10.889 0 014.111-8.614 1.824 1.824 0 012.51.244c.888 1.06 2.086 1.704 3.386 1.704 1.3 0 2.508-.655 3.413-1.735a1.778 1.778 0 012.444-.238A10.887 10.887 0 0121 22.111z"/><path d="M16.111 6.667a8.38 8.38 0 01-.87 3.778c-.919 1.806-2.474 2.995-4.24 2.995-1.767 0-3.334-1.189-4.24-2.995a8.38 8.38 0 01-.872-3.778C5.89 2.925 8.18-.11 11-.11c2.822 0 5.111 3.035 5.111 6.777z"/></g></symbol></svg>